{
    "asset" : {
        "generator" : "Khronos glTF Blender I/O v1.2.75",
        "version" : "2.0"
    },
    "scene" : 0,
    "scenes" : [
        {
            "name" : "Scene",
            "nodes" : [
                0,
                1,
                2,
                3,
                4,
                5,
                6,
                7
            ]
        }
    ],
    "nodes" : [
        {
            "name" : "Camera",
            "rotation" : [
                0.7354047298431396,
                0.17202597856521606,
                -0.2029949426651001,
                0.6232014298439026
            ],
            "translation" : [
                149.5840301513672,
                6.926304817199707,
                58.70869064331055
            ]
        },
        {
            "mesh" : 0,
            "name" : "Cube",
            "translation" : [
                -19.744991302490234,
                -0.7088987827301025,
                2.8813300132751465
            ]
        },
        {
            "mesh" : 1,
            "name" : "Plane",
            "scale" : [
                19.901592254638672,
                56.35843276977539,
                43.30952072143555
            ],
            "translation" : [
                0.6958484649658203,
                -5.00825309753418,
                -34.68828201293945
            ]
        },
        {
            "mesh" : 2,
            "name" : "Cube.001",
            "scale" : [
                8.014765739440918,
                6.020395278930664,
                10.385441780090332
            ],
            "translation" : [
                -34.07969665527344,
                5.053984642028809,
                -42.54368591308594
            ]
        },
        {
            "mesh" : 3,
            "name" : "Cube.002",
            "scale" : [
                8.014765739440918,
                6.020395278930664,
                9.071361541748047
            ],
            "translation" : [
                -64.79073333740234,
                5.053984642028809,
                -42.54368591308594
            ]
        },
        {
            "mesh" : 4,
            "name" : "Cube.003",
            "scale" : [
                4.929415702819824,
                5.935661315917969,
                2.0394773483276367
            ],
            "translation" : [
                -109.7665786743164,
                5.053984642028809,
                -97.25457763671875
            ]
        },
        {
            "mesh" : 5,
            "name" : "Cube.004",
            "scale" : [
                8.014765739440918,
                4.784289360046387,
                9.071361541748047
            ],
            "translation" : [
                -50.128597259521484,
                3.233053207397461,
                -91.45245361328125
            ]
        },
        {
            "mesh" : 6,
            "name" : "Aedificio3",
            "scale" : [
                8.014765739440918,
                4.784289360046387,
                9.071361541748047
            ],
            "translation" : [
                -50.128597259521484,
                3.233053207397461,
                -157.81842041015625
            ]
        }
    ],
    "materials" : [
        {
            "doubleSided" : true,
            "emissiveFactor" : [
                0,
                0,
                0
            ],
            "name" : "paletaColores",
            "pbrMetallicRoughness" : {
                "baseColorTexture" : {
                    "index" : 0,
                    "texCoord" : 0
                },
                "metallicFactor" : 0,
                "roughnessFactor" : 0.5
            }
        }
    ],
    "meshes" : [
        {
            "name" : "Cube.004",
            "primitives" : [
                {
                    "attributes" : {
                        "POSITION" : 0,
                        "NORMAL" : 1,
                        "TEXCOORD_0" : 2
                    },
                    "indices" : 3,
                    "material" : 0
                }
            ]
        },
        {
            "name" : "Plane",
            "primitives" : [
                {
                    "attributes" : {
                        "POSITION" : 4,
                        "NORMAL" : 5,
                        "TEXCOORD_0" : 6
                    },
                    "indices" : 7,
                    "material" : 0
                }
            ]
        },
        {
            "name" : "Cube.007",
            "primitives" : [
                {
                    "attributes" : {
                        "POSITION" : 8,
                        "NORMAL" : 9,
                        "TEXCOORD_0" : 10
                    },
                    "indices" : 11,
                    "material" : 0
                }
            ]
        },
        {
            "name" : "Cube.008",
            "primitives" : [
                {
                    "attributes" : {
                        "POSITION" : 12,
                        "NORMAL" : 13,
                        "TEXCOORD_0" : 14
                    },
                    "indices" : 15,
                    "material" : 0
                }
            ]
        },
        {
            "name" : "Cube.009",
            "primitives" : [
                {
                    "attributes" : {
                        "POSITION" : 16,
                        "NORMAL" : 17,
                        "TEXCOORD_0" : 18
                    },
                    "indices" : 15,
                    "material" : 0
                }
            ]
        },
        {
            "name" : "Cube.001",
            "primitives" : [
                {
                    "attributes" : {
                        "POSITION" : 19,
                        "NORMAL" : 20,
                        "TEXCOORD_0" : 21
                    },
                    "indices" : 15,
                    "material" : 0
                }
            ]
        },
        {
            "name" : "Cube.002",
            "primitives" : [
                {
                    "attributes" : {
                        "POSITION" : 22,
                        "NORMAL" : 23,
                        "TEXCOORD_0" : 24
                    },
                    "indices" : 25,
                    "material" : 0
                }
            ]
        }
    ],
    "textures" : [
        {
            "source" : 0
        }
    ],
    "images" : [
        {
            "mimeType" : "image/png",
            "name" : "paletaDeColores",
            "uri" : "paletaDeColores.png"
        }
    ],
    "accessors" : [
        {
            "bufferView" : 0,
            "componentType" : 5126,
            "count" : 56,
            "max" : [
                320.54534912109375,
                1,
                1
            ],
            "min" : [
                -137.93276977539062,
                -30.0538330078125,
                -102772.5859375
            ],
            "type" : "VEC3"
        },
        {
            "bufferView" : 1,
            "componentType" : 5126,
            "count" : 56,
            "type" : "VEC3"
        },
        {
            "bufferView" : 2,
            "componentType" : 5126,
            "count" : 56,
            "type" : "VEC2"
        },
        {
            "bufferView" : 3,
            "componentType" : 5123,
            "count" : 84,
            "type" : "SCALAR"
        },
        {
            "bufferView" : 4,
            "componentType" : 5126,
            "count" : 4,
            "max" : [
                8.936023712158203,
                0,
                1.8488717079162598
            ],
            "min" : [
                -1,
                0,
                -2372.111572265625
            ],
            "type" : "VEC3"
        },
        {
            "bufferView" : 5,
            "componentType" : 5126,
            "count" : 4,
            "type" : "VEC3"
        },
        {
            "bufferView" : 6,
            "componentType" : 5126,
            "count" : 4,
            "type" : "VEC2"
        },
        {
            "bufferView" : 7,
            "componentType" : 5123,
            "count" : 6,
            "type" : "SCALAR"
        },
        {
            "bufferView" : 8,
            "componentType" : 5126,
            "count" : 76,
            "max" : [
                1,
                2.3501434326171875,
                1
            ],
            "min" : [
                -1.8457729816436768,
                -1,
                -3.685211658477783
            ],
            "type" : "VEC3"
        },
        {
            "bufferView" : 9,
            "componentType" : 5126,
            "count" : 76,
            "type" : "VEC3"
        },
        {
            "bufferView" : 10,
            "componentType" : 5126,
            "count" : 76,
            "type" : "VEC2"
        },
        {
            "bufferView" : 11,
            "componentType" : 5123,
            "count" : 132,
            "type" : "SCALAR"
        },
        {
            "bufferView" : 12,
            "componentType" : 5126,
            "count" : 24,
            "max" : [
                1,
                3.2233433723449707,
                1
            ],
            "min" : [
                -1.8457729816436768,
                -1,
                -3.685211658477783
            ],
            "type" : "VEC3"
        },
        {
            "bufferView" : 13,
            "componentType" : 5126,
            "count" : 24,
            "type" : "VEC3"
        },
        {
            "bufferView" : 14,
            "componentType" : 5126,
            "count" : 24,
            "type" : "VEC2"
        },
        {
            "bufferView" : 15,
            "componentType" : 5123,
            "count" : 36,
            "type" : "SCALAR"
        },
        {
            "bufferView" : 16,
            "componentType" : 5126,
            "count" : 24,
            "max" : [
                1,
                6.376700401306152,
                1
            ],
            "min" : [
                -1.8457729816436768,
                -1,
                -3.685211658477783
            ],
            "type" : "VEC3"
        },
        {
            "bufferView" : 17,
            "componentType" : 5126,
            "count" : 24,
            "type" : "VEC3"
        },
        {
            "bufferView" : 18,
            "componentType" : 5126,
            "count" : 24,
            "type" : "VEC2"
        },
        {
            "bufferView" : 19,
            "componentType" : 5126,
            "count" : 24,
            "max" : [
                1,
                3.490675926208496,
                1
            ],
            "min" : [
                -1.8457729816436768,
                -1,
                -5.663879871368408
            ],
            "type" : "VEC3"
        },
        {
            "bufferView" : 20,
            "componentType" : 5126,
            "count" : 24,
            "type" : "VEC3"
        },
        {
            "bufferView" : 21,
            "componentType" : 5126,
            "count" : 24,
            "type" : "VEC2"
        },
        {
            "bufferView" : 22,
            "componentType" : 5126,
            "count" : 54,
            "max" : [
                2.625260353088379,
                2.9411461353302,
                1.5475232601165771
            ],
            "min" : [
                -1.8457729816436768,
                -1,
                -5.663879871368408
            ],
            "type" : "VEC3"
        },
        {
            "bufferView" : 23,
            "componentType" : 5126,
            "count" : 54,
            "type" : "VEC3"
        },
        {
            "bufferView" : 24,
            "componentType" : 5126,
            "count" : 54,
            "type" : "VEC2"
        },
        {
            "bufferView" : 25,
            "componentType" : 5123,
            "count" : 84,
            "type" : "SCALAR"
        }
    ],
    "bufferViews" : [
        {
            "buffer" : 0,
            "byteLength" : 672,
            "byteOffset" : 0
        },
        {
            "buffer" : 0,
            "byteLength" : 672,
            "byteOffset" : 672
        },
        {
            "buffer" : 0,
            "byteLength" : 448,
            "byteOffset" : 1344
        },
        {
            "buffer" : 0,
            "byteLength" : 168,
            "byteOffset" : 1792
        },
        {
            "buffer" : 0,
            "byteLength" : 48,
            "byteOffset" : 1960
        },
        {
            "buffer" : 0,
            "byteLength" : 48,
            "byteOffset" : 2008
        },
        {
            "buffer" : 0,
            "byteLength" : 32,
            "byteOffset" : 2056
        },
        {
            "buffer" : 0,
            "byteLength" : 12,
            "byteOffset" : 2088
        },
        {
            "buffer" : 0,
            "byteLength" : 912,
            "byteOffset" : 2100
        },
        {
            "buffer" : 0,
            "byteLength" : 912,
            "byteOffset" : 3012
        },
        {
            "buffer" : 0,
            "byteLength" : 608,
            "byteOffset" : 3924
        },
        {
            "buffer" : 0,
            "byteLength" : 264,
            "byteOffset" : 4532
        },
        {
            "buffer" : 0,
            "byteLength" : 288,
            "byteOffset" : 4796
        },
        {
            "buffer" : 0,
            "byteLength" : 288,
            "byteOffset" : 5084
        },
        {
            "buffer" : 0,
            "byteLength" : 192,
            "byteOffset" : 5372
        },
        {
            "buffer" : 0,
            "byteLength" : 72,
            "byteOffset" : 5564
        },
        {
            "buffer" : 0,
            "byteLength" : 288,
            "byteOffset" : 5636
        },
        {
            "buffer" : 0,
            "byteLength" : 288,
            "byteOffset" : 5924
        },
        {
            "buffer" : 0,
            "byteLength" : 192,
            "byteOffset" : 6212
        },
        {
            "buffer" : 0,
            "byteLength" : 288,
            "byteOffset" : 6404
        },
        {
            "buffer" : 0,
            "byteLength" : 288,
            "byteOffset" : 6692
        },
        {
            "buffer" : 0,
            "byteLength" : 192,
            "byteOffset" : 6980
        },
        {
            "buffer" : 0,
            "byteLength" : 648,
            "byteOffset" : 7172
        },
        {
            "buffer" : 0,
            "byteLength" : 648,
            "byteOffset" : 7820
        },
        {
            "buffer" : 0,
            "byteLength" : 432,
            "byteOffset" : 8468
        },
        {
            "buffer" : 0,
            "byteLength" : 168,
            "byteOffset" : 8900
        }
    ],
    "buffers" : [
        {
            "byteLength" : 9068,
            "uri" : "EscenarioFlappyBird.glb.bin"
        }
    ]
}
